# xmcd
#
# Track frame offsets: 
#        150
#        22226
#        48147
#        68328
#        91867
#        116506
#        140330
#        164614
#        194304
#        223659
#        247776
#        268131
#
# Disc length: 3815 seconds
#
# Revision: 0
# Processed by: cddbd v1.5.2PL0 Copyright (c) Steve Scherf et al.
# Submitted via: ExactAudioCopy v1.0b3
#
DISCID=a30ee50c
DTITLE=Truong Vu, Hong Truc - Tren Bon Vung Chien Thuat
DYEAR=2002
DGENRE=
TTITLE0=Lam Gia Minh - Tren bon vung chien thuat
TTITLE1=Hong Truc - Mot nguoi di
TTITLE2=Truong Vu - Trang thanh binh
TTITLE3=Hong Truc - Nguoi yeu cua linh
TTITLE4=Lam Gia Minh - Toi chua co mua Xuan
TTITLE5=Phi Nhung - Linh xa nha
TTITLE6=Truong Vu - Ba thang quan truong
TTITLE7=Hong Truc - Cho nguoi vao cuoc chien
TTITLE8=Chung Tu Luu - Ngo hon qua dem
TTITLE9=Hong Truc - De tra loi mot cau hoi
TTITLE10=Truong Vu - Ngo y
TTITLE11=Hong Truc - Thuong ve vung hoa tuyen
EXTD=
EXTT0=
EXTT1=
EXTT2=
EXTT3=
EXTT4=
EXTT5=
EXTT6=
EXTT7=
EXTT8=
EXTT9=
EXTT10=
EXTT11=
PLAYORDER=
